<svg width="20" height="20" viewBox="0 0 26 26" fill="none" xmlns="http://www.w3.org/2000/svg">
<path d="M0.642438 22.2201C0.471577 22.3778 0.537293 22.9561 0.681868 23.2716C0.971018 23.8893 1.56246 24.0602 2.16705 24.0339C4.15167 23.9682 5.82085 23.127 7.21403 21.9704C9.29066 20.2224 11.433 18.54 13.4176 16.6868C13.4308 16.7 13.457 16.7131 13.4702 16.7263C13.8119 17.1469 14.1536 17.5674 14.5085 17.9749C16.7691 20.5509 19.1349 23.0087 21.9213 25.0328C22.7099 25.6111 23.7087 25.7556 24.4973 24.8488C25.2202 24.0339 25.2991 22.9824 24.6945 22.1938C23.5904 20.7744 22.4996 19.3286 21.2115 18.08C19.6343 16.5554 17.9652 15.1228 16.3091 13.6771C16.4668 13.493 16.6246 13.3222 16.7691 13.1382C17.1897 12.7965 17.6103 12.4547 18.0177 12.0999C20.5938 9.83924 23.0516 7.47347 25.0756 4.68711C25.6539 3.89852 25.7985 2.89964 24.8916 2.11105C24.0767 1.38817 23.0253 1.30931 22.2367 1.9139C20.8172 3.01793 19.3715 4.10881 18.1229 5.39684C16.5457 7.0266 15.0737 8.73522 13.5885 10.4438C10.9861 6.73745 7.35861 3.95109 4.3751 0.586438C4.21739 0.415577 3.63908 0.481293 3.32365 0.625868C2.70592 0.915019 2.53506 1.50646 2.56134 2.11105C2.62706 4.09567 3.46822 5.76486 4.62483 7.15803C6.38601 9.2478 8.08148 11.4033 9.94782 13.401C6.5043 15.964 3.83623 19.3812 0.642438 22.2201Z" fill="white"/>
</svg>
