<svg width="40" height="40" viewBox="0 0 40 40" fill="none" xmlns="http://www.w3.org/2000/svg">
<g clip-path="url(#clip0_25_25)">
<path d="M35.4609 7.52344C34.6406 8.34375 33.3047 8.34375 32.4766 7.52344C31.6562 6.70313 31.6562 5.36719 32.4766 4.53906C33.2969 3.71875 34.6328 3.71875 35.4609 4.53906C36.2812 5.36719 36.2812 6.70313 35.4609 7.52344ZM32.3203 18.1562C31.2109 20.9609 28.8594 23.5391 26.7109 25.6875C24.25 28.1484 23.3984 31.3438 23.1562 33.8359L6.15624 16.8359C8.64843 16.5938 11.8437 15.7422 14.3047 13.2812C16.4531 11.1328 19.0312 8.78125 21.8359 7.67188C25.0156 6.41406 27.7109 7.04688 30.3281 9.66406C32.9453 12.2812 33.5781 14.9766 32.3203 18.1562ZM9.74999 30.25C8.07812 28.5781 7.83593 26 9.04687 24.0781L15.9297 30.9609C13.9922 32.1641 11.4219 31.9297 9.74999 30.25ZM37.625 2.375C35.6016 0.351562 32.3281 0.351562 30.3125 2.375C29.5937 3.09375 29.1328 3.97656 28.9219 4.89844C28.1406 4.53125 27.3359 4.27344 26.5156 4.125C24.6562 3.78906 22.7031 4.02344 20.7109 4.80469C17.3828 6.11719 14.5078 8.72656 12.1328 11.1016C8.61718 14.6172 2.6953 13.75 2.64062 13.7344C1.98437 13.625 1.32812 13.9609 1.02343 14.5547C0.718741 15.1484 0.835929 15.875 1.30468 16.3437L6.81249 21.8516C4.42187 25.0156 4.66405 29.5469 7.55468 32.4297C10.4375 35.3125 14.9687 35.5625 18.1328 33.1719L23.6406 38.6797C24.1094 39.1484 24.8359 39.2656 25.4297 38.9609C26.0234 38.6562 26.3594 38.0078 26.25 37.3438C26.25 37.3281 26.0234 35.8281 26.2422 33.8984C26.5312 31.3516 27.4219 29.3125 28.8828 27.8516C31.2578 25.4766 33.8672 22.6016 35.1797 19.2734C35.9687 17.2812 36.1953 15.3281 35.8594 13.4687C35.7109 12.6484 35.4531 11.8438 35.0859 11.0625C36.0156 10.8594 36.8906 10.3906 37.6094 9.67188C39.6484 7.67188 39.6484 4.39844 37.625 2.375Z" fill="white"/>
</g>
<defs>
<clipPath id="clip0_25_25">
<rect width="40" height="40" fill="white"/>
</clipPath>
</defs>
</svg>
