<svg width="26" height="25" viewBox="0 0 26 25" fill="none" xmlns="http://www.w3.org/2000/svg">
<path d="M24.9731 8.904L24.9528 8.85328L24.9122 8.75183L24.8311 8.54894L24.197 6.91061L24.1767 6.85988L24.1412 6.77873L24.1159 6.72293L24.055 6.61134C23.9789 6.47946 23.8978 6.37802 23.7963 6.28165C23.5985 6.0889 23.355 5.94688 23.0862 5.87079C22.9543 5.83529 22.8174 5.815 22.6754 5.815C22.6043 5.815 22.5384 5.82007 22.4674 5.82514C22.4065 5.83529 22.3152 5.85051 22.2949 5.85558L21.8638 5.94181L20.6363 6.19035C20.2711 5.72877 19.8704 5.29763 19.4291 4.90199L19.8755 3.13685L19.8907 3.06584C19.9008 3.01005 19.9059 2.94918 19.911 2.88831C19.916 2.78687 19.916 2.69557 19.9059 2.60427C19.8856 2.41659 19.8349 2.22892 19.7588 2.05646C19.6016 1.71155 19.3226 1.41736 18.9777 1.24998L17.8922 0.768112L16.8118 0.296393L16.7357 0.265959C16.68 0.24567 16.6191 0.230454 16.5582 0.215237C16.4618 0.194948 16.3655 0.179731 16.2691 0.174659C16.0764 0.164514 15.8785 0.184803 15.6909 0.240598C15.3155 0.347115 14.9808 0.580439 14.7525 0.894918L13.8344 2.3608C13.2968 2.305 12.749 2.28979 12.2012 2.32022L11.2983 0.823907L11.2577 0.76304C11.2222 0.712317 11.1816 0.661595 11.136 0.610872C11.065 0.534789 10.994 0.463777 10.9179 0.40291C10.7606 0.276104 10.5831 0.179731 10.3954 0.10872C10.0201 -0.028231 9.5991 -0.0383755 9.20853 0.093503C9.09187 0.134081 9.07158 0.144225 9.02086 0.164514L8.88898 0.215237L8.62522 0.321754L8.09264 0.534789L6.99196 0.976074L6.92602 1.00651C6.8753 1.03187 6.81443 1.0623 6.76371 1.09274C6.67241 1.14853 6.59125 1.2094 6.51517 1.27534C6.363 1.40722 6.23112 1.56953 6.12968 1.74706C5.92679 2.09704 5.8507 2.52311 5.91157 2.91875L5.93693 3.05062L5.95215 3.12164L5.98258 3.26366L6.04345 3.54263L6.16518 4.10058L6.28184 4.62302C5.84563 4.97808 5.44492 5.37371 5.07972 5.79978L4.50148 5.66283L3.91818 5.52588L3.62399 5.45994L3.47689 5.42444L3.39573 5.40922L3.36023 5.40415L3.28415 5.394L3.18777 5.38386C2.75663 5.35342 2.34071 5.47516 2.00594 5.7237C1.83855 5.84543 1.69146 6.00267 1.5748 6.17513C1.519 6.26136 1.46828 6.35266 1.4277 6.44903L1.36683 6.59105L0.910333 7.6968L0.692226 8.18881L0.580636 8.43735L0.540058 8.5388L0.514697 8.59966C0.49948 8.64024 0.479191 8.71125 0.463975 8.76198C0.448758 8.81777 0.443686 8.85835 0.433541 8.90907C0.372674 9.27935 0.433541 9.66991 0.600925 10.0047C0.687154 10.1721 0.798743 10.3242 0.930622 10.4561C1.05236 10.588 1.25525 10.7148 1.29582 10.7402L2.58417 11.5923C2.52838 12.1249 2.51824 12.6625 2.54867 13.1951L1.06757 14.0828C0.737876 14.3009 0.469047 14.6509 0.342241 15.0262C0.210362 15.4015 0.200218 15.8276 0.332096 16.2182L0.773382 17.3391L1.2096 18.4398C1.37191 18.8101 1.67624 19.1398 2.04144 19.3275C2.40665 19.5253 2.84793 19.5862 3.24864 19.5101L4.8819 19.1601C5.2116 19.5557 5.5768 19.926 5.96229 20.2709L5.57173 21.9143L5.56666 21.9498L5.55651 22.0208C5.54637 22.0817 5.5413 22.1578 5.5413 22.2085C5.53622 22.31 5.5413 22.4165 5.55651 22.5179C5.58187 22.7259 5.64274 22.9237 5.73911 23.1114C5.92171 23.4816 6.24127 23.7961 6.62169 23.9686L7.70207 24.4251L8.79261 24.8816C9.17303 25.0287 9.61938 25.0388 10.0049 24.912C10.3954 24.7903 10.7454 24.5265 10.9686 24.1867L11.8816 22.7411C12.4243 22.7817 12.9671 22.7817 13.5047 22.736L14.3011 23.9939L14.3721 24.1055L14.4329 24.1968L14.4887 24.2729C14.5242 24.3186 14.5598 24.3642 14.5953 24.3997L14.6916 24.4961C14.7576 24.557 14.8286 24.6128 14.8996 24.6635C15.1938 24.8613 15.5438 24.9678 15.8938 24.9627C16.0713 24.9627 16.2488 24.9323 16.4162 24.8765L16.5379 24.8309L16.5988 24.8055L16.7205 24.7548L17.2024 24.5519C17.527 24.4099 17.8415 24.2729 18.1458 24.141C18.3081 24.0649 18.4705 23.9939 18.6277 23.9229L18.6835 23.8976C18.7038 23.8874 18.7596 23.857 18.8002 23.8316C18.8864 23.7809 18.932 23.7403 18.998 23.6896C19.1146 23.5932 19.2161 23.4766 19.2972 23.3599C19.4646 23.1164 19.5559 22.8375 19.5711 22.5636C19.5813 22.4266 19.5711 22.2947 19.5458 22.1679L19.5255 22.0716C19.5153 22.0361 19.5153 22.031 19.5103 22.0107L19.4798 21.9143C19.3987 21.6556 19.3175 21.4122 19.2364 21.1991C18.9219 20.3368 18.6378 19.8499 18.435 20.0021C18.2524 20.139 18.1915 20.7122 18.2473 21.61C18.2625 21.8281 18.2879 22.0868 18.3081 22.3302C18.3031 22.4418 18.2422 22.5382 18.1611 22.5889C18.1458 22.5991 18.1103 22.6194 18.1103 22.6143C18.1306 22.6041 18.0748 22.6295 18.0393 22.6396C18.0495 22.6346 18.014 22.6498 18.0647 22.6295H18.0596H18.0545L18.0393 22.6346L17.9886 22.6498L17.9328 22.6701C17.7857 22.7208 17.6285 22.7766 17.4712 22.8273C17.1567 22.9389 16.8321 23.0556 16.4923 23.1875L16.0206 23.365C15.914 23.4056 15.9343 23.3954 15.909 23.4005C15.8938 23.4056 15.8735 23.4005 15.8583 23.3954C15.8227 23.3903 15.7923 23.3701 15.7669 23.3498C15.7619 23.3447 15.7619 23.3447 15.7568 23.3396C15.7517 23.3295 15.7416 23.3143 15.7314 23.3041L15.6199 23.1164C15.28 22.5382 14.9402 21.9549 14.5953 21.3716C14.4583 21.1332 14.1895 20.9912 13.8953 21.0216L13.8699 21.0267C13.0787 21.1129 12.2722 21.0977 11.486 20.9607C11.1969 20.91 10.8976 21.0317 10.7251 21.2904L10.715 21.3107C10.2991 21.9346 9.88821 22.5585 9.47229 23.1875C9.45707 23.2027 9.452 23.2027 9.44186 23.2027C9.43678 23.2027 9.43678 23.2027 9.43678 23.2027L8.45784 22.7766L7.42817 22.3252L7.39774 22.31C7.39267 22.3049 7.39774 22.31 7.39267 22.3049V22.2998C7.56005 21.5998 7.72744 20.8999 7.89482 20.205L7.92018 20.0985V20.0934C7.99626 19.7789 7.88468 19.4391 7.61077 19.2311C6.98182 18.7543 6.42894 18.1862 5.95215 17.5471L5.94708 17.542C5.7594 17.2884 5.42971 17.1565 5.10508 17.2276L2.9088 17.7196C2.88851 17.7246 2.87837 17.7297 2.86315 17.6993L2.44722 16.6798L2.03637 15.6755C2.02116 15.6501 2.0313 15.5892 2.06681 15.5689L3.97904 14.382L3.98919 14.377C4.23773 14.2248 4.38482 13.9357 4.33917 13.6263C4.22758 12.835 4.22758 12.0285 4.34425 11.2423V11.2271C4.38482 10.9481 4.26309 10.6539 4.00948 10.4967L2.10231 9.28949C2.05159 9.25906 2.02623 9.19819 2.04652 9.13225L2.47259 8.11273L2.90373 7.08306C2.92909 7.02219 2.98995 6.97147 3.0914 6.99176L5.27754 7.49899L5.28768 7.50406C5.53622 7.55985 5.80505 7.47363 5.96229 7.25552C6.25648 6.85988 6.58618 6.49468 6.94631 6.15991C7.19992 5.94688 7.46368 5.75413 7.74265 5.57153C7.95569 5.42951 8.07742 5.17082 8.0267 4.90707L8.01655 4.86142C7.88468 4.13101 7.7528 3.39554 7.61585 2.66006C7.61585 2.6347 7.62599 2.61948 7.64121 2.60934C7.64628 2.60427 7.65135 2.59919 7.6615 2.59919L7.67164 2.59412C7.66657 2.59919 7.65642 2.60427 7.65135 2.60934L7.70715 2.58398L8.74696 2.19849L9.28462 2.00067L9.55345 1.89922L9.68532 1.8485L9.75126 1.82314C9.76141 1.813 9.7817 1.82314 9.77662 1.79778C9.77662 1.79778 9.77662 1.82821 9.77662 1.82314C9.77662 1.82314 9.7817 1.813 9.78677 1.80792L9.79691 1.82314L9.80706 1.83836C9.72083 1.79778 9.7817 1.82821 9.76648 1.82314V1.82821L9.77155 1.83836L9.79184 1.86879L9.82735 1.92966L9.89836 2.05139L10.0455 2.29993L10.3346 2.79194L10.9179 3.78103C11.0903 4.07522 11.4302 4.25782 11.7903 4.21724L11.8207 4.21217C12.5867 4.12594 13.3728 4.16145 14.154 4.28825C14.5141 4.34912 14.8895 4.19188 15.0974 3.86726L15.1076 3.84697L15.7213 2.89338L16.0307 2.41659L16.1829 2.1782L16.2488 2.07675L16.264 2.08182L16.3959 2.13762L16.6546 2.24921L17.177 2.47746L17.6995 2.70571L17.9632 2.8173L18.0647 2.86295V2.86802L18.0292 3.00497L17.9632 3.28395L17.8263 3.83682L17.5575 4.94257C17.4662 5.31285 17.593 5.7237 17.9125 5.97731C18.5212 6.4541 19.0639 7.01205 19.5103 7.63594C19.7385 7.95042 20.1392 8.12287 20.545 8.03664L21.6609 7.79318L22.2189 7.67144L22.4978 7.61058L22.5993 7.59029V7.59536L22.6551 7.72724L22.7616 7.99099L22.9746 8.51851L23.1877 9.04602L23.2942 9.30978L23.3398 9.42137L23.3347 9.42644L23.213 9.50252L22.9695 9.64962L22.4826 9.94888L21.5087 10.5474H21.5037C21.179 10.7452 20.9863 11.1206 21.037 11.5213C21.1334 12.2821 21.1182 13.0632 21.0015 13.8393C20.9457 14.2146 21.108 14.6052 21.4479 14.8284L22.4065 15.4421L22.8884 15.7515L23.1268 15.9037L23.2232 15.9646L23.2181 15.9747L23.1623 16.1066L23.0507 16.3703L22.8275 16.8928L22.6043 17.4152L22.4928 17.6739L22.4522 17.7652L22.442 17.7601L22.3051 17.7246L22.0312 17.6536L21.4783 17.5167L20.3776 17.2428C20.0124 17.1515 19.6066 17.2732 19.353 17.5826L19.3327 17.608L19.2009 17.7703C19.0081 18.0036 18.7799 18.3181 18.5618 18.6021C18.3487 18.8862 18.1458 19.1449 18.0647 19.2869C17.8872 19.576 17.9886 19.6419 18.2828 19.5506C18.5668 19.4644 19.0335 19.2007 19.5255 18.7898C19.7284 18.6224 19.9211 18.4398 20.1291 18.2268L20.1342 18.2217C20.1392 18.2166 20.1443 18.2166 20.1494 18.2166C20.7986 18.455 21.4682 18.6884 22.1631 18.9217C22.2493 18.9471 22.3304 18.9826 22.4522 19.0028C22.5739 19.0231 22.6855 19.0181 22.8022 18.9978C23.0355 18.9572 23.2637 18.8405 23.4311 18.6529C23.4717 18.6072 23.5123 18.5565 23.5478 18.5058C23.5833 18.455 23.6137 18.3891 23.634 18.3536L23.7659 18.1C23.8521 17.9326 23.9383 17.7601 24.0246 17.5928C24.197 17.2529 24.3695 16.908 24.547 16.558L24.613 16.4261L24.6485 16.3399C24.6586 16.3247 24.6738 16.2689 24.689 16.2283C24.7347 16.0711 24.7499 15.9291 24.7398 15.7718C24.7195 15.4675 24.5927 15.1682 24.3746 14.94C24.3188 14.8842 24.263 14.8284 24.197 14.7827L24.0601 14.6864L23.8166 14.5139C23.6543 14.3972 23.4869 14.2857 23.3246 14.169C23.1014 14.0168 22.8782 13.8596 22.6551 13.7023C22.7514 13.0683 22.7869 12.4089 22.7464 11.7445C23.2333 11.4553 23.7202 11.1713 24.2122 10.8771L24.3086 10.8213L24.3543 10.7909L24.4253 10.7452L24.4506 10.7249L24.5014 10.6894C24.5318 10.6641 24.5673 10.6336 24.5927 10.6133C24.6434 10.5677 24.689 10.522 24.7347 10.4713C24.9071 10.2684 25.0289 10.0199 25.0796 9.76121C25.1354 9.50252 25.1202 9.22355 25.0339 8.96487L24.9731 8.904ZM9.43678 23.1925H9.44186C9.44186 23.1976 9.44186 23.1976 9.43678 23.1925C9.43171 23.1925 9.43678 23.1925 9.43678 23.1925ZM7.39774 22.2897C7.39267 22.2897 7.39774 22.2795 7.39774 22.2897C7.39267 22.2897 7.39267 22.2897 7.39774 22.2897ZM16.2285 1.93473C16.2184 1.92966 16.2133 1.92966 16.2184 1.92966H16.2133C16.2032 1.91951 16.2032 1.91951 16.2032 1.91951V1.91444L16.2184 1.91951L16.2336 1.92966C16.264 1.88908 16.2539 1.9043 16.2285 1.93473ZM22.4826 17.9478C22.4775 17.958 22.4775 17.958 22.4826 17.9478V17.9478ZM23.3804 15.9443L23.3855 15.9392C23.3956 15.9291 23.3956 15.9291 23.3956 15.9291H23.4007L23.3905 15.9544V15.9595C23.3956 15.9646 23.3905 15.9595 23.3855 15.9544C23.3804 15.9544 23.3804 15.9494 23.3804 15.9443ZM23.492 9.5076L23.4818 9.51267C23.4818 9.5076 23.4818 9.5076 23.4818 9.5076C23.492 9.50252 23.5021 9.49745 23.5123 9.49238L23.492 9.5076Z" fill="black"/>
<path d="M15.9242 13.5908L15.8532 13.7886C15.8126 13.9255 15.7365 14.0422 15.6858 14.1741C15.5488 14.4175 15.4017 14.661 15.209 14.874C14.8438 15.3102 14.3619 15.6552 13.8243 15.8885C13.6721 15.9646 13.5199 16.0102 13.383 16.0863C13.241 16.137 13.1142 16.2131 13.0076 16.2841C12.7895 16.416 12.6374 16.5935 12.6627 16.8218C12.6881 17.0297 12.8504 17.2073 13.1446 17.3341C13.2917 17.3797 13.4743 17.4203 13.6772 17.4254C13.8801 17.4152 14.1083 17.4102 14.3416 17.329C14.7728 17.2174 15.1735 17.0247 15.5641 16.8015C15.9445 16.5682 16.3046 16.2841 16.614 15.9544C16.9183 15.6197 17.1973 15.2545 17.4002 14.8436C17.5118 14.6458 17.5879 14.4277 17.6741 14.2146C17.7147 14.1081 17.7401 13.9965 17.7705 13.8849C17.8009 13.7734 17.8314 13.6668 17.8516 13.54L17.8973 13.2458L17.9176 13.0987L17.9227 12.9821L17.9328 12.7488L17.9379 12.693V12.6625V12.6473V12.6017V12.5966V12.5864L17.9328 12.4495C17.9227 12.0843 17.877 11.7191 17.7857 11.364C17.6082 10.6539 17.2785 9.98439 16.827 9.41629C15.9293 8.26997 14.5496 7.56492 13.1142 7.49391C12.5106 7.37218 11.8258 7.37218 11.1867 7.52434C10.5375 7.67144 9.91357 7.96056 9.37084 8.36127C8.82811 8.76705 8.36146 9.28442 8.01148 9.87787L7.77308 10.3344C7.70714 10.4916 7.64628 10.6539 7.58034 10.8162C7.52962 10.9785 7.48396 11.1459 7.43831 11.3133C7.39774 11.4908 7.37238 11.6836 7.34194 11.8662L7.3318 11.9372L7.33687 11.9981L7.3318 12.1046L7.31658 12.3125L7.31151 12.3633V12.3886V12.4444V12.4546V12.4698L7.31658 12.5966L7.32673 12.8553C7.34701 13.2002 7.40281 13.54 7.49411 13.8748C7.67164 14.5443 7.97597 15.1733 8.38683 15.7262C8.79768 16.279 9.30997 16.7508 9.89328 17.1109C10.0353 17.2073 10.1875 17.2884 10.3447 17.3645C10.4969 17.4457 10.6541 17.5116 10.8164 17.5725C10.9737 17.6384 11.1411 17.6942 11.3034 17.7399L11.5519 17.8109L11.8309 17.8616C12.1352 17.9225 12.4243 17.75 12.5359 17.6384C12.7439 17.4051 12.5106 17.1819 12.1403 16.9892C11.5265 16.6442 10.9889 16.2385 10.5172 15.7718C10.0556 15.295 9.6701 14.7523 9.41142 14.1588C9.24911 13.8038 9.16288 13.4183 9.12737 13.0379C9.1223 12.9415 9.10201 12.8451 9.11216 12.7488L9.11723 12.6067V12.5357V12.5002V12.4901C9.14259 12.2669 9.16288 12.0133 9.20853 11.8814L9.23389 11.7597C9.24404 11.7191 9.26432 11.6734 9.27447 11.6278C9.3049 11.5416 9.32519 11.4452 9.36577 11.364L9.47736 11.1054L9.61431 10.8619C9.80706 10.5423 10.0455 10.2583 10.3194 10.0097C10.5933 9.76628 10.9077 9.56846 11.2374 9.41629C11.3997 9.33514 11.5773 9.28441 11.7497 9.22355C11.9273 9.18297 12.0997 9.13732 12.2823 9.1221L12.4193 9.10181L12.5562 9.09674L12.6932 9.09167L12.7591 9.0866H12.7642H12.7997L13.1497 9.10689L13.3881 9.14239C13.7228 9.19819 14.0931 9.31485 14.4228 9.47209C14.7322 9.66991 15.0061 9.91845 15.2394 10.1923C15.9952 11.0597 16.264 12.2821 15.9749 13.3726L15.9242 13.5908Z" fill="black"/>
</svg>
