<svg width="22" height="25" viewBox="0 0 22 25" fill="none" xmlns="http://www.w3.org/2000/svg">
<path d="M19.3841 20.3079C17.3718 20.1656 15.3644 19.9497 13.3423 20.1116C13.092 20.092 12.8417 20.0724 12.5914 20.0576C11.0061 19.9742 9.41595 19.9497 7.84049 20.1509C7.73743 20.1656 7.63436 20.1901 7.54111 20.2196C7.54111 20.0871 7.5362 19.9447 7.48712 19.7975C7.32516 19.1987 6.99141 18.6343 6.52516 18.1926C6.05399 17.7509 5.46503 17.4368 4.80737 17.3288L4.59141 17.2993L4.48344 17.2846L4.40491 17.2797L4.25276 17.2748H4.13497L4.03681 17.2797C3.77669 17.2895 3.51657 17.3288 3.27117 17.3975C2.77055 17.5349 2.3043 17.7803 1.91166 18.1043C1.12148 18.757 0.650309 19.7386 0.625769 20.7497C0.655216 20.7202 0.689571 20.7006 0.719021 20.6711C0.689571 20.7055 0.655216 20.73 0.625769 20.7497C0.527609 21.1668 0.522701 21.6527 0.620861 22.1141C0.719021 22.5754 0.925156 23.022 1.21473 23.4098C1.5043 23.7975 1.8773 24.1312 2.3043 24.3766C2.41227 24.4355 2.52516 24.4895 2.63313 24.5435C2.74601 24.5926 2.86381 24.6319 2.9816 24.676C3.09939 24.7104 3.22209 24.7447 3.33988 24.7742C3.46749 24.8036 3.61473 24.8184 3.74724 24.838L3.80123 24.8429H3.83558L3.9043 24.8478L4.04172 24.8527H4.07607H4.09571H4.1546H4.16442L4.25767 24.8478L4.44417 24.838C4.68957 24.8184 4.93497 24.7742 5.17546 24.7055C5.65154 24.573 6.10307 24.3423 6.4908 24.0429C6.88344 23.7435 7.21227 23.3705 7.46749 22.9484C7.5362 22.8454 7.59019 22.7325 7.64417 22.6245C7.70307 22.5165 7.74724 22.3987 7.79141 22.2859C7.84049 22.173 7.87485 22.0552 7.9092 21.9325L7.95828 21.7509L7.97792 21.6331C8.7681 21.7165 9.56319 21.8 10.3534 21.7901C11.6883 21.7705 13.0233 21.6724 14.3583 21.6086C16.7534 22.173 19.2025 21.849 21.6221 21.9668C21.7301 21.9717 21.8969 21.8 21.9509 21.6822C22.054 21.4417 21.9215 21.2405 21.7153 21.0883C21.038 20.5877 20.2184 20.3668 19.3841 20.3079ZM7.13375 21.3288C6.53006 22.1288 5.88221 22.6539 5.16074 22.9632C4.94479 23.0613 4.71411 23.1055 4.48835 23.1251C4.42945 23.1251 4.37546 23.1398 4.31657 23.13L4.18405 23.1251C4.03681 23.1104 3.85522 23.0908 3.79632 23.0613C3.75215 23.0515 3.70798 23.0417 3.65399 23.0171C3.6 22.9975 3.54601 22.9828 3.49693 22.9582L3.3497 22.8895L3.20737 22.8061C3.02086 22.6883 2.8589 22.5509 2.71657 22.3889C2.44172 22.065 2.25522 21.6724 2.20123 21.2601C2.19141 21.211 2.1865 21.157 2.1865 21.103L2.1816 21.0245L2.17669 20.9852V20.9803L2.1865 20.7497C2.19141 20.6957 2.20123 20.6662 2.20123 20.622C2.22577 20.4405 2.28466 20.2147 2.36319 20.0184C2.48098 19.8417 2.62822 19.6895 2.79019 19.5521C3.29571 19.1251 3.98282 18.9779 4.60123 19.1251C4.91043 19.1938 5.20491 19.3312 5.46012 19.5374C5.72025 19.7386 5.9362 19.9987 6.09816 20.3079C6.14724 20.3914 6.18651 20.4797 6.2454 20.5582C6.28957 20.6368 6.35828 20.7104 6.42209 20.7742C6.54479 20.9018 6.72148 20.9951 6.94233 20.9803C6.98651 20.9754 7.02577 20.9656 7.06503 20.9558C7.08467 21.0687 7.12393 21.1717 7.18773 21.2601C7.16319 21.2846 7.14847 21.3043 7.13375 21.3288Z" fill="black"/>
<path d="M0.732359 12.4257C0.702912 12.4601 0.668556 12.4846 0.639108 12.5043C0.540948 12.9214 0.53604 13.4073 0.6342 13.8687C0.732359 14.33 0.938494 14.7767 1.22807 15.1644C1.51764 15.5521 1.89064 15.8859 2.31764 16.1313C2.42561 16.1901 2.53849 16.2441 2.64647 16.2981C2.75935 16.3472 2.87714 16.3865 2.99494 16.4306C3.11273 16.465 3.23543 16.4994 3.35322 16.5288C3.48083 16.5582 3.62806 16.573 3.76058 16.5926L3.81457 16.5975H3.84892L3.91764 16.6024L4.05506 16.6073H4.08941H4.10905H4.16794H4.17776L4.27101 16.6024L4.45751 16.5926C4.70291 16.573 4.94831 16.5288 5.1888 16.4601C5.66487 16.3276 6.11641 16.0969 6.50414 15.7975C6.89678 15.4981 7.22561 15.1251 7.48083 14.703C7.54954 14.6 7.60353 14.4871 7.65751 14.3791C7.71641 14.2711 7.76058 14.1533 7.80475 14.0405C7.85383 13.9276 7.88819 13.8098 7.92254 13.6871L7.97162 13.5055L7.99126 13.3877C8.78144 13.4711 9.57653 13.5546 10.3667 13.5448C11.7017 13.5251 13.0367 13.427 14.3716 13.3632C16.7667 13.9276 19.2158 13.6036 21.6354 13.7214C21.7434 13.7263 21.9103 13.5546 21.9643 13.4368C22.0673 13.1963 21.9348 12.9951 21.7287 12.8429C21.0514 12.3374 20.2317 12.1165 19.3974 12.0576C17.3851 11.9153 15.3778 11.6994 13.3557 11.8613C13.1054 11.8417 12.8551 11.8221 12.6048 11.8073C11.0195 11.7239 9.42929 11.6994 7.85383 11.9006C7.75076 11.9153 7.6477 11.9398 7.55445 11.9693C7.55445 11.8368 7.54954 11.6944 7.50046 11.5472C7.33849 10.9484 7.00475 10.384 6.53849 9.9423C6.06733 9.50058 5.47837 9.18647 4.8207 9.07849L4.60475 9.04905L4.49678 9.03432L4.41825 9.02941L4.2661 9.02451H4.14831L4.05015 9.02941C3.79003 9.03923 3.52991 9.07849 3.28451 9.1472C2.78389 9.28463 2.31764 9.53003 1.925 9.85395C1.13481 10.5067 0.663648 11.4883 0.639108 12.4994C0.673464 12.4748 0.702912 12.4503 0.732359 12.4257ZM2.19494 12.7251L2.20475 12.4944C2.20966 12.4405 2.21948 12.411 2.21948 12.3668C2.24402 12.1852 2.30291 11.9595 2.38144 11.7632C2.49923 11.5865 2.64647 11.4343 2.80843 11.2969C3.31395 10.8699 4.00107 10.7227 4.61948 10.8699C4.92868 10.9386 5.22316 11.076 5.47837 11.2822C5.73849 11.4834 5.95445 11.7435 6.11641 12.0527C6.16549 12.1362 6.20475 12.2245 6.26365 12.303C6.30782 12.3816 6.37653 12.4552 6.44033 12.519C6.56303 12.6466 6.73972 12.7398 6.96058 12.7251C7.00475 12.7202 7.04402 12.7104 7.08328 12.7006C7.10291 12.8135 7.14218 12.9165 7.20598 13.0049C7.19126 13.0245 7.17162 13.049 7.1569 13.0687C6.55322 13.8687 5.90537 14.3938 5.18389 14.703C4.96794 14.8012 4.73727 14.8454 4.5115 14.865C4.45261 14.865 4.39862 14.8797 4.33972 14.8699L4.20721 14.865C4.05997 14.8503 3.87837 14.8306 3.81948 14.8012C3.7753 14.7914 3.73113 14.7816 3.67715 14.757C3.62316 14.7374 3.56917 14.7227 3.52009 14.6981L3.37285 14.6294L3.23052 14.546C3.04402 14.4282 2.88205 14.2908 2.73972 14.1288C2.46487 13.8 2.27837 13.4122 2.22438 13C2.21457 12.9509 2.20966 12.8969 2.20966 12.8429L2.20475 12.7644L2.19984 12.7251H2.19494Z" fill="black"/>
<path d="M21.7153 4.67112C21.038 4.1656 20.2184 3.94474 19.3841 3.88585C17.3718 3.74352 15.3644 3.52757 13.3423 3.68953C13.092 3.6699 12.8417 3.65027 12.5914 3.63554C11.0061 3.55211 9.41596 3.52757 7.8405 3.72879C7.73743 3.74352 7.63436 3.76806 7.54111 3.7975C7.54111 3.66499 7.5362 3.52266 7.48712 3.37542C7.32516 2.77665 6.99142 2.21223 6.52516 1.77051C6.054 1.32879 5.46504 1.01468 4.80737 0.906708L4.59142 0.87726L4.48344 0.862536L4.40491 0.857628L4.25277 0.85272H4.13498L4.03682 0.857628C3.77669 0.867444 3.51657 0.906708 3.27117 0.97542C2.77056 1.11284 2.3043 1.35824 1.91166 1.68217C1.12148 2.33493 0.650314 3.31652 0.625774 4.32757C0.655222 4.29812 0.689577 4.27849 0.719025 4.24904C0.689577 4.2834 0.655222 4.30793 0.625774 4.32757C0.527615 4.74474 0.522705 5.23063 0.620865 5.69198C0.719025 6.15333 0.925159 6.59996 1.21473 6.98769C1.5043 7.37542 1.87731 7.70916 2.3043 7.95456C2.41228 8.01346 2.52516 8.06744 2.63313 8.12143C2.74602 8.17051 2.86381 8.20977 2.9816 8.25395C3.09939 8.2883 3.22209 8.32266 3.33988 8.35211C3.46749 8.38155 3.61473 8.39628 3.74725 8.41591L3.80124 8.42082H3.83559L3.9043 8.42573L4.04173 8.43063H4.07608H4.09571H4.15461H4.16442L4.25768 8.42573L4.44418 8.41591C4.68958 8.39628 4.93498 8.35211 5.17547 8.28339C5.65154 8.15088 6.10307 7.9202 6.4908 7.62082C6.88344 7.32143 7.21228 6.94843 7.46749 6.52634C7.5362 6.42327 7.59019 6.31039 7.64418 6.20241C7.70307 6.09444 7.74725 5.97665 7.79142 5.86376C7.8405 5.75088 7.87485 5.63309 7.90921 5.51039L7.95829 5.32879L7.97792 5.211C8.7681 5.29444 9.5632 5.37787 10.3534 5.36806C11.6884 5.34843 13.0233 5.25027 14.3583 5.18646C16.7534 5.75088 19.2025 5.42695 21.6221 5.54474C21.7301 5.54965 21.8969 5.37787 21.9509 5.26008C22.0589 5.02941 21.9215 4.82818 21.7153 4.67112ZM7.13375 4.90671C6.53007 5.70671 5.88222 6.23186 5.16074 6.54106C4.94479 6.63922 4.71412 6.6834 4.48835 6.70303C4.42945 6.70303 4.37547 6.71775 4.31657 6.70793L4.18406 6.70303C4.03682 6.6883 3.85522 6.66867 3.79633 6.63922C3.75216 6.62941 3.70798 6.61959 3.654 6.59505C3.60001 6.57542 3.54602 6.56069 3.49694 6.53615L3.3497 6.46744L3.20737 6.38401C3.02087 6.26622 2.8589 6.12879 2.71657 5.96683C2.44172 5.6429 2.25522 5.25027 2.20123 4.838C2.19142 4.78892 2.18651 4.73493 2.18651 4.68094L2.1816 4.60241L2.17669 4.56315V4.55824L2.18651 4.32757C2.19142 4.27358 2.20123 4.24413 2.20123 4.19996C2.22577 4.01836 2.28467 3.7926 2.3632 3.59628C2.48099 3.41959 2.62823 3.26744 2.79019 3.13002C3.29571 2.70303 3.98283 2.55579 4.60123 2.70303C4.91044 2.77174 5.20491 2.90916 5.46013 3.1153C5.72025 3.31652 5.9362 3.57665 6.09817 3.88585C6.14725 3.96928 6.18651 4.05763 6.24541 4.13616C6.28958 4.21468 6.35829 4.2883 6.42209 4.35211C6.54479 4.47971 6.72148 4.57297 6.94234 4.55824C6.98651 4.55333 7.02577 4.54352 7.06504 4.5337C7.08467 4.64658 7.12393 4.74965 7.18774 4.838C7.1632 4.86254 7.14847 4.88217 7.13375 4.90671Z" fill="black"/>
</svg>
