<svg width="25" height="25" viewBox="0 0 50 50" fill="none" xmlns="http://www.w3.org/2000/svg">
<path d="M44.7398 26.972C44.6173 24.6865 44.148 22.7888 43.2297 22.952C42.3829 23.1051 41.7605 24.7273 41.6687 27.074C41.4952 31.2878 41.3014 35.5424 41.3218 39.7665L41.3728 44.8679C41.4034 45.4393 41.23 45.9596 41.0259 46.2351C40.9749 46.2963 40.9341 46.3474 40.8933 46.3678C40.8729 46.3882 40.8627 46.3882 40.8627 46.3984H40.8524C40.8524 46.3984 40.8422 46.4086 40.8524 46.3984C40.8627 46.3984 40.8831 46.3882 40.8933 46.3882C40.9035 46.3882 40.9239 46.3882 40.9341 46.3984C40.9443 46.4086 40.9749 46.4188 40.9341 46.4188L40.7708 46.429H40.7504H40.7402C40.7912 46.4188 40.628 46.4494 40.8422 46.4086H40.8014H40.7198H40.5566L39.9138 46.4188L34.8123 46.531L33.5369 46.5616L33.2207 46.5718C33.19 46.5718 33.1594 46.5718 33.1288 46.5718C33.0676 46.5616 33.0064 46.5514 32.9554 46.531C32.8431 46.48 32.7411 46.3882 32.6799 46.2657C32.6697 46.2351 32.6493 46.2045 32.6391 46.1739C32.6187 46.1127 32.6391 46.1943 32.6187 46.1229L32.6085 45.9596V45.9494V45.8678L32.5983 45.5515C32.8942 42.5008 33.0676 39.44 33.1696 36.3587L33.2309 34.0528L33.2411 33.4712V33.3284C33.2411 33.2774 33.2411 33.2468 33.2411 33.1345C33.2411 32.9407 33.2207 32.7468 33.19 32.553C33.0676 31.7776 32.6901 31.0532 32.1493 30.492C31.6086 29.9308 30.8944 29.5329 30.1088 29.3697C29.8741 29.3187 29.5578 29.2982 29.5272 29.2982H29.4558H29.2823H29.1395H28.5579L26.2418 29.288L21.5485 29.2982C20.7629 29.3187 19.967 29.5839 19.3345 30.0533C18.6917 30.5124 18.2019 31.1654 17.9367 31.9204C17.8652 32.1041 17.8244 32.2979 17.7734 32.4918C17.753 32.6142 17.7326 32.7366 17.7224 32.8591L17.7122 32.9509V32.9917V33.0631L17.702 33.308V33.4508V33.7365V34.8997C17.7122 37.9911 17.7122 41.0826 17.651 44.1639C17.6408 44.7149 17.9979 45.5719 18.2427 45.8474C18.7427 46.3882 19.161 45.6842 19.4773 44.6435C20.0079 42.9192 20.3854 41.0112 20.6404 39.0114C20.7731 38.0116 20.8751 36.9811 20.9465 35.9302C20.9873 35.4098 21.0179 34.8793 21.0485 34.3589L21.0792 33.5631L21.0894 33.3692V33.2672V33.257C21.0894 33.3998 21.0894 33.2978 21.0894 33.3284V33.3182V33.2978V33.2468L21.0996 33.1448C21.0996 33.1243 21.1098 33.1448 21.1098 33.1448C21.1098 33.155 21.1098 33.155 21.12 33.1345C21.171 32.9713 21.324 32.8489 21.4771 32.8183C21.4057 32.7876 22.3239 32.8387 22.9055 32.8489L26.7418 32.9713L28.6599 33.0325L29.1395 33.0427H29.2619H29.2925H29.3027C29.1293 33.0427 29.2619 33.0427 29.2211 33.0427H29.2313H29.2925L29.4048 33.0529C29.3946 33.0529 29.3741 33.0631 29.3639 33.0631C29.3231 33.0529 29.3537 33.0733 29.3537 33.0733C29.3639 33.0835 29.3639 33.0835 29.3741 33.0835C29.3843 33.0937 29.3946 33.1039 29.4048 33.1141C29.4252 33.1345 29.4354 33.1754 29.4354 33.1958C29.4354 33.206 29.4354 33.2162 29.4354 33.2264C29.4354 33.257 29.4252 33.1856 29.4252 33.41L29.3843 35.3282C29.3333 37.8891 29.2925 40.4603 29.2925 43.0314L29.3027 44.9598L29.3129 45.9188V46.1331L29.3231 46.2555V46.3167L29.3333 46.4494C29.3435 46.5514 29.3639 46.6432 29.3741 46.7453C29.4456 47.082 29.5374 47.3778 29.6802 47.6635C30.221 48.8267 31.3841 49.6531 32.6493 49.7959C32.8023 49.8163 32.9656 49.8164 33.1186 49.8266H33.3737L33.8532 49.8163L34.8225 49.7857C36.0979 49.8266 37.3732 49.8572 38.6486 49.898L40.1689 49.9286L40.5464 49.9388H40.7402H40.7606L40.9239 49.9286H40.9749H41.0667C41.0769 49.9286 41.3116 49.9082 41.485 49.8674C41.5769 49.847 41.6687 49.8266 41.7503 49.8061L41.9544 49.7449C42.2196 49.6531 42.4543 49.5307 42.689 49.398C43.5664 48.8471 44.0868 48.1023 44.4235 47.3881C44.7602 46.6636 44.9234 45.9188 44.954 45.174L44.9642 44.8985V44.7047V44.3272L44.9744 43.5722L44.9846 42.0621V39.0318C45.0357 35.0221 44.9438 30.9919 44.7398 26.972Z" fill="black"/>
<path d="M48.6271 24.6253C49.3005 24.5641 49.1372 23.8499 48.6883 23.0132C47.1987 20.2686 44.852 17.5445 42.2299 15.0345C39.6791 12.5858 37.1182 10.1371 34.5674 7.67822C33.2819 6.45387 31.9963 5.23972 30.6903 4.04597L28.711 2.26046L27.7213 1.37281L27.2213 0.934079L26.9765 0.709614L26.7826 0.546367L26.65 0.444338L26.6296 0.423932C25.9052 -0.157635 24.844 -0.147432 24.14 0.495353C22.9055 1.61768 21.6811 2.7604 20.4874 3.91334C19.6508 4.60714 18.8141 5.31114 17.9877 6.00494C12.723 10.484 7.55007 15.0345 2.72408 19.9217C1.34668 21.3093 0.448826 22.7378 1.18344 23.3397C1.84663 23.8805 3.29545 23.4214 4.84629 22.1562C5.43806 21.6766 6.04004 21.1971 6.63181 20.7074C6.46856 22.7888 6.32572 24.8906 6.34612 26.972C6.38694 30.7471 6.59099 34.5221 6.72363 38.2972C6.42775 39.9909 6.2543 41.6948 6.15227 43.3987L6.09105 44.6843L6.07064 45.3271L6.06044 45.6433V45.8066L6.07064 46.0923C6.10125 46.9187 6.40734 47.735 6.91749 48.3879C7.41743 49.0511 8.13164 49.5511 8.92747 49.8061C9.0295 49.8368 9.13153 49.8674 9.23356 49.8878L9.3866 49.9286L9.58046 49.9592L9.77431 49.9796L9.92736 49.9898L10.0906 50H10.2743H10.3559H10.5191H10.8456L12.1312 49.9898L14.7125 49.9694H17.2837H17.6102H17.7734H17.855H18.0183C18.4468 49.9592 18.8855 49.8674 19.3039 49.7143C20.1303 49.398 20.8343 48.8165 21.2934 48.0614C21.4669 47.7962 21.5485 47.3778 21.5179 47.0105C21.5077 46.9187 21.4975 46.8371 21.4873 46.7453C21.4771 46.6432 21.4465 46.5514 21.4261 46.4698C21.3853 46.2657 21.3036 46.2453 21.2526 46.2045C21.0077 46.0413 20.7833 46.0515 20.569 46.1739C20.467 46.2147 20.3548 46.3576 20.2323 46.5004C20.1099 46.6228 19.9874 46.7453 19.8548 46.8677C19.4059 47.2554 18.8753 47.4187 18.4366 47.3983C18.2121 47.388 18.0285 47.3268 17.8346 47.2452C17.5592 47.1636 17.2837 47.0922 17.0082 47.0309C15.8961 46.7657 14.7227 46.6228 13.5392 46.5616L11.4068 46.4494L10.3457 46.3882H10.2743H10.2538H10.2436C10.2743 46.3882 10.162 46.3882 10.3151 46.3882H10.2845L10.1518 46.378C10.0906 46.378 10.111 46.3678 10.111 46.3678C10.1212 46.3678 10.1212 46.3678 10.1314 46.3678C10.0906 46.3473 10.0498 46.3269 10.0192 46.2963C9.88654 46.1943 9.82533 46.0209 9.84573 45.8882C9.84573 45.8678 9.85593 45.8576 9.85593 45.8372L9.86614 45.5821L9.88654 45.0516L9.92736 43.9803C10.0396 41.1336 10.06 38.287 9.89675 35.42L10.009 33.2978C10.1824 28.8085 10.2334 24.3294 9.81512 19.8605C9.76411 19.3096 9.64167 18.8096 9.44782 18.4219C10.713 17.3608 11.9679 16.2895 13.1923 15.1876C17.3041 11.4635 21.324 7.617 25.3644 3.82151L25.8745 4.36227L27.2111 5.74987C28.109 6.66813 29.0273 7.57619 29.9557 8.47405C31.8127 10.2596 33.7206 12.0043 35.649 13.7388C39.5057 17.1976 43.444 20.5747 47.2089 24.1049C47.5048 24.4416 48.2802 24.6661 48.6271 24.6253Z" fill="black"/>
</svg>
