<svg width="40" height="40" viewBox="0 0 40 40" fill="none" xmlns="http://www.w3.org/2000/svg">
<g clip-path="url(#clip0_24_20)">
<path d="M8.68365 29.9573C8.49677 30.1117 8.31802 30.2742 8.14739 30.4367C8.06614 30.518 7.98489 30.5992 7.90364 30.6724L7.84676 30.7292L7.83051 30.7455L7.79801 30.7699L7.78988 30.778L7.76551 30.8105L7.62738 30.9649C7.52988 31.0786 7.44863 31.1924 7.3755 31.298C7.33488 31.2574 7.29425 31.2086 7.25363 31.168C6.99362 30.9242 6.80674 30.6236 6.57924 30.3473C6.36799 30.063 6.12423 29.803 5.93736 29.5023C5.57172 28.9011 5.14109 28.3242 4.84859 27.6742C4.69421 27.3573 4.51546 27.0485 4.36921 26.7235L3.9792 25.7323C2.76856 22.726 2.6223 19.9066 1.81792 20.1503C1.48479 20.2641 1.22478 20.9547 1.0704 22.1166C1.05415 22.6935 1.05415 23.3841 1.11915 24.1641C1.18416 24.546 1.25728 24.9523 1.34666 25.3829C1.39541 25.5942 1.42791 25.8135 1.49291 26.0329C1.56604 26.2523 1.63916 26.4717 1.71229 26.6992C2.20792 28.3404 3.02856 29.8598 3.93857 31.3142C4.44233 32.013 4.91359 32.7361 5.51485 33.3618L5.94548 33.8493C6.08361 34.0118 6.22986 34.1743 6.39236 34.3205L7.33488 35.2062C8.65115 36.3274 10.073 37.3431 11.6574 38.0743C12.4212 38.4887 13.2581 38.7569 14.0706 39.0575C14.4769 39.2037 14.9075 39.285 15.3219 39.4069C15.7444 39.5125 16.1506 39.6425 16.6056 39.6912L17.6782 39.8456L18.2144 39.9187L18.7019 39.9431L19.6769 39.9837L19.9207 39.9919L20.0426 40H20.1076H20.1807H20.1888H20.2051H20.2376L20.7576 39.9756C21.4563 39.9269 22.1551 39.935 22.8376 39.7969C23.5283 39.6831 24.2189 39.6019 24.8852 39.3906C27.5908 38.7081 30.134 37.4406 32.3034 35.7181C34.4728 33.9955 36.2928 31.8261 37.5441 29.3642L37.9829 28.4298C38.121 28.1129 38.2916 27.8123 38.3891 27.4792L38.7304 26.5042L38.901 26.0167C38.9497 25.8542 38.9822 25.6835 39.031 25.5129L39.2747 24.5135C39.3154 24.3429 39.3641 24.1804 39.3885 24.0098L39.4616 23.4816C39.551 22.7829 39.6891 22.0597 39.681 21.4341C39.9654 19.0209 39.7704 16.4615 39.0716 14.0565C38.381 11.6352 37.1866 9.3439 35.5941 7.36136C34.0259 5.38696 32.0434 3.70506 29.7927 2.46191L28.0621 1.6169C27.4608 1.38127 26.8596 1.16189 26.2583 0.942515C25.6408 0.763762 25.0152 0.609385 24.3976 0.446882C23.7558 0.31688 23.0814 0.235629 22.4232 0.130002L22.1714 0.0975015L21.952 0.0812513L21.5051 0.0568759L20.6195 0.0162503L20.4001 0.00812513L20.2863 0H20.1726H20.1401H20.0832L19.6038 0.0243754L18.6451 0.0731261L18.1657 0.0975015C18.0032 0.113752 17.8488 0.146252 17.6863 0.162503L16.7356 0.308755C16.0938 0.381881 15.4763 0.576884 14.8506 0.731261C12.3725 1.41377 10.0243 2.58379 7.99301 4.15194C5.95361 5.72009 4.21483 7.67012 2.89856 9.87203C2.73605 10.1483 2.54918 10.4164 2.41105 10.7008L1.98854 11.5702C1.85042 11.8627 1.69604 12.1471 1.58229 12.4396L1.24103 13.3415C1.1354 13.6421 1.01353 13.9427 0.916027 14.2433L0.672273 15.1777L0.428519 16.1121L0.266016 17.1034C0.0628881 18.1109 0.331017 19.3784 0.501645 19.8172C0.867276 20.6541 1.22478 19.6059 1.60666 18.0215C2.32167 15.4134 3.54044 12.7808 5.31985 10.4164C5.52297 10.1077 5.7911 9.84765 6.02673 9.55515L6.38424 9.13264L6.56299 8.92139L6.76612 8.71826C7.03425 8.45826 7.29425 8.19013 7.56238 7.922L7.76551 7.71887L7.98489 7.54012L8.42364 7.17449C8.98428 6.6626 9.62616 6.24822 10.2437 5.80947C10.5524 5.58196 10.9018 5.41946 11.2268 5.22446C11.5599 5.03758 11.8768 4.82633 12.2343 4.68007C13.8675 3.83506 15.6631 3.3313 17.4669 3.0713C17.9219 3.02255 18.3688 2.91692 18.8319 2.92505L19.5144 2.90067L19.8557 2.89255L20.0263 2.88442H20.1157H20.1563H20.1726L21.6026 2.98192L21.9682 3.0063C22.0901 3.01442 22.1876 3.0388 22.3014 3.06317L22.9514 3.17692L23.6014 3.28255C23.8208 3.32318 24.0401 3.3963 24.2595 3.45318L24.9177 3.63193C25.137 3.68881 25.3564 3.74568 25.5677 3.83506L26.8352 4.32257C27.2414 4.51757 27.6477 4.72882 28.0539 4.92383C29.6465 5.78509 31.1009 6.89011 32.3603 8.182C33.6197 9.48202 34.6353 10.9933 35.4316 12.6021L35.7241 13.2115L35.8703 13.5121L35.9841 13.829L36.4391 15.0965L36.7722 16.4046C36.7966 16.5103 36.8291 16.624 36.8535 16.7296L36.9022 17.0628L36.9997 17.729L37.1053 18.3953L37.1378 19.0697L37.1703 19.7441L37.1866 20.0853V20.1178V20.1909L37.1785 20.3778L37.1135 21.8485C37.0647 22.3035 36.9835 22.7097 36.9266 23.1404C36.626 24.8791 36.0572 26.6423 35.2284 28.2511C34.3834 29.7217 33.319 31.0542 32.1084 32.2243C32.0353 32.013 31.9215 31.8017 31.7671 31.6149C31.5315 31.3142 31.2959 31.0055 31.0277 30.713C30.4996 30.1117 29.9065 29.5348 29.2646 28.9823C28.6227 28.4298 27.9321 27.9098 27.2089 27.4142C26.8433 27.1704 26.4777 26.9267 26.0958 26.6992L25.5189 26.3579L25.4702 26.3335L25.4864 25.7892L25.527 24.4973L25.5839 22.5391C25.8845 22.2547 26.1364 21.9216 26.3233 21.5478C26.4696 21.2553 26.5752 20.9385 26.6321 20.6134C26.6646 20.4509 26.6808 20.2884 26.6889 20.1259L26.6971 19.7684L26.7621 17.2659L26.7946 16.0146L26.8108 15.389L26.8189 15.0721V14.9177L26.8108 14.6902L26.8027 14.3733C26.7946 14.2433 26.7702 14.0727 26.7458 13.9183C26.7133 13.5933 26.6321 13.3577 26.5671 13.0815C26.3964 12.5533 26.177 12.0333 25.8764 11.5702C25.2752 10.6358 24.4301 9.85578 23.4145 9.36827C22.9189 9.11639 22.3745 8.94577 21.822 8.84826C21.2776 8.74264 20.652 8.75076 20.2945 8.75076L19.6688 8.75889H19.5551H19.5144L19.4332 8.76701L19.2788 8.77514C19.1732 8.78326 19.0838 8.78326 18.9051 8.80764L18.4419 8.88076C18.2957 8.91326 18.1657 8.94576 18.0275 8.98639C17.7513 9.05139 17.4994 9.16514 17.2394 9.26264C16.2238 9.71765 15.33 10.4489 14.7125 11.3671C14.2981 11.9196 13.9812 12.5371 13.77 13.1952C13.7212 13.3658 13.6725 13.5283 13.6319 13.699L13.5425 14.2108C13.5018 14.544 13.4856 14.9421 13.4856 15.1615L13.4206 18.7203L13.4125 19.6059V20.1016V20.2234L13.4287 20.4509C13.445 20.5972 13.4612 20.7109 13.4937 20.8328C13.6319 21.5072 13.965 22.141 14.42 22.6447V25.1148L14.4281 26.0329L14.1112 26.2035C12.1937 27.3004 10.3737 28.5354 8.68365 29.9573ZM24.9745 26.0898C24.9583 26.0817 24.9258 26.0654 24.9745 26.0898V26.0898ZM14.5662 29.2505C14.94 29.0555 15.3138 28.8605 15.6875 28.6736L16.2481 28.3973L16.3863 28.3323L16.4594 28.2998L16.5 28.2836L16.5163 28.2754C16.5569 28.2511 16.5975 28.2348 16.6381 28.2104C16.955 28.0154 17.1988 27.7067 17.3125 27.3573C17.345 27.2679 17.3613 27.1867 17.3775 27.081C17.3857 27.0242 17.3938 26.9185 17.3857 26.9429V26.8779V26.7967C17.4019 25.9273 17.4019 25.0579 17.4019 24.1966C17.3938 23.4491 17.3857 22.7016 17.3857 21.9622V21.9135C17.3775 21.4991 17.1663 21.0928 16.7925 20.8572C16.5731 20.7191 16.4106 20.4916 16.3538 20.2397C16.3375 20.1422 16.3375 20.2153 16.3294 20.0041L16.3213 19.5897L16.305 18.6797L16.2319 15.0559C16.2238 14.8852 16.2319 14.804 16.2319 14.6821C16.2238 14.5684 16.2481 14.4627 16.2644 14.349C16.2969 14.1296 16.3456 13.9102 16.4188 13.699C16.565 13.2765 16.8006 12.8783 17.1094 12.5371C17.41 12.1958 17.7919 11.9114 18.2063 11.7164C18.4176 11.6189 18.6288 11.5377 18.8563 11.4808C18.9701 11.4483 19.0513 11.4402 19.1569 11.4158C19.1976 11.3996 19.2707 11.3996 19.3519 11.3914L19.5794 11.3752L20.5057 11.4564L20.7495 11.4808L20.9363 11.5133C21.0582 11.5296 21.1801 11.5539 21.2938 11.5864C21.7651 11.7083 22.1957 11.9277 22.5614 12.2202C22.927 12.5127 23.2276 12.8783 23.4389 13.2765C23.4958 13.374 23.5445 13.4796 23.5851 13.5852C23.6339 13.6827 23.6664 13.7965 23.6989 13.9021C23.7639 14.1133 23.7964 14.349 23.8126 14.4952C23.8208 14.5196 23.8208 14.6171 23.8208 14.6984L23.8289 14.9421L23.8208 15.3565L23.7964 16.3478L23.7639 18.3303L23.7558 19.3216V19.8172V20.0447C23.7558 20.0691 23.7558 20.0934 23.7476 20.1178C23.7233 20.3128 23.6095 20.4916 23.4389 20.6053L23.4145 20.6216C22.992 20.9141 22.7157 21.4016 22.7157 21.9541L22.7239 25.586L22.732 26.496V26.7235V26.8373V26.9023C22.732 27.0485 22.7564 27.2029 22.7889 27.3492C22.862 27.6417 23.0164 27.9179 23.2276 28.1373C23.3414 28.2511 23.4308 28.3323 23.5933 28.4379L23.6989 28.4948L23.7639 28.5273L23.7883 28.5354L23.9751 28.6248C24.487 28.8767 24.9989 29.153 25.5108 29.4373C26.5264 30.0061 27.5177 30.6236 28.4683 31.2899C28.9396 31.623 29.419 31.9643 29.8577 32.3136C30.069 32.4761 30.3046 32.6711 30.5402 32.8661L30.7109 33.0124C30.719 33.0286 30.7434 33.0449 30.7596 33.0611C30.7921 33.1018 30.8246 33.1343 30.849 33.183C30.8734 33.2155 30.914 33.248 30.9709 33.2805C26.8839 36.5874 21.2613 37.8387 16.1913 36.5549L15.1675 36.2949L14.1762 35.9374L13.6806 35.7587C13.5181 35.6937 13.3637 35.6124 13.2012 35.5393L12.2425 35.0924C11.0481 34.418 9.86992 33.6787 8.85428 32.7443C8.96803 32.663 9.0899 32.5899 9.19553 32.5411C9.50429 32.3786 9.88617 32.1186 10.268 31.8667C11.6168 30.8999 13.0793 30.0386 14.5662 29.2505Z" fill="white"/>
</g>
<defs>
<clipPath id="clip0_24_20">
<rect width="40" height="40" fill="white"/>
</clipPath>
</defs>
</svg>
