<svg width="30" height="26" viewBox="0 0 30 26" fill="none" xmlns="http://www.w3.org/2000/svg">
<path d="M5.03918 0.335042L4.92465 0.329014H4.89451H4.83424H4.77396C4.61121 0.329014 4.48463 0.316959 4.27366 0.34107L3.98433 0.371208L3.72514 0.425458C3.5443 0.455596 3.37553 0.521901 3.1947 0.576151C2.50151 0.823288 1.86257 1.26331 1.35624 1.82389C0.855937 2.39652 0.488246 3.1078 0.331525 3.86729C0.301386 4.06018 0.253165 4.25307 0.247137 4.44595L0.229054 4.74734L0.223026 4.99448L0.204943 5.96494C0.156721 9.09333 0.114527 12.2217 0.066305 15.3501L0 20.0457V20.3893L0.0120555 20.6847C0.0120555 20.763 0.0361664 20.9258 0.0482218 21.0584C0.066305 21.197 0.0843882 21.3356 0.120555 21.4502C0.223026 21.9384 0.415913 22.4086 0.669078 22.8426C0.916215 23.2766 1.23568 23.6684 1.6094 24.0059C1.98312 24.3375 2.39904 24.6328 2.86317 24.8378C3.32128 25.0427 3.80952 25.1934 4.31585 25.2476C4.44244 25.2657 4.56902 25.2657 4.68957 25.2778L4.87643 25.2898H5.02712L5.61784 25.2959L7.96866 25.3139C9.53586 25.32 11.1091 25.326 12.6763 25.326C15.8168 25.326 18.9632 25.3079 22.1097 25.2537L24.4424 25.2898H24.5148H24.5509H24.6413L24.786 25.2838L24.9307 25.2778C24.9789 25.2778 25.0211 25.2778 25.0995 25.2657C25.2381 25.2476 25.3767 25.2296 25.5154 25.2115C25.648 25.1874 25.7625 25.1572 25.8891 25.1271C26.3713 24.9945 26.8475 24.8016 27.2694 24.5243C27.9506 24.1024 28.5112 23.4996 28.915 22.8064C29.3249 22.1132 29.5419 21.3115 29.5781 20.5098L29.5841 20.3592V20.2386V20.0095L29.5901 19.5454L29.5961 18.6171L29.6082 16.7666C29.6142 14.2953 29.6142 11.8299 29.6203 9.36458C29.6142 8.79194 29.6624 8.03848 29.4093 7.18857C29.1863 6.40496 28.7523 5.69369 28.1917 5.11503C27.6311 4.53034 26.9259 4.10237 26.1603 3.84318C25.9735 3.77687 25.7685 3.73468 25.5756 3.68646C25.3767 3.65632 25.1778 3.62015 24.9789 3.6081C24.5389 3.58399 24.2737 3.59604 23.9602 3.59604C22.7306 3.61413 21.4949 3.63221 20.2652 3.65029L18.4207 3.68646L17.9626 3.69851L17.7336 3.70454H17.7034H17.6974C17.6854 3.70454 17.6854 3.70454 17.6854 3.70454H17.6673L17.5527 3.69851C17.4804 3.69249 17.39 3.69851 17.3357 3.69249C17.2936 3.68646 17.2453 3.68043 17.2031 3.6744C17.1187 3.6744 16.9982 3.63221 16.8897 3.61413C16.3954 3.48152 15.9494 3.23438 15.5998 2.93299C15.2502 2.63161 14.9849 2.282 14.7981 1.96856C14.6052 1.65511 14.4726 1.36578 14.358 1.1729C14.2435 0.980009 14.1169 0.87151 13.9843 0.925759C13.8698 0.967953 13.7492 1.1307 13.6769 1.40195C13.4057 1.26934 12.8451 1.14879 12.1519 1.04631C10.0482 0.732872 7.71549 0.509846 5.26221 0.359153L5.03918 0.335042ZM11.5793 2.12528C12.2483 2.1313 13.2911 1.92636 13.6287 1.77567C13.6166 2.00472 13.6287 2.27597 13.701 2.58941C13.8216 3.07163 14.0747 3.65029 14.5509 4.16868C15.0211 4.68706 15.6902 5.16928 16.5341 5.39231C16.6305 5.41642 16.7149 5.44655 16.8234 5.46464L17.1368 5.51889C17.1851 5.52492 17.2453 5.53697 17.2875 5.543L17.4081 5.54903L17.6492 5.56711L18.6558 5.59122C19.3008 5.60328 19.9458 5.61533 20.5907 5.62739C21.8807 5.6515 23.1766 5.67561 24.4726 5.69369C24.563 5.69369 24.6233 5.69972 24.6775 5.70575L24.8583 5.7178C24.9789 5.74191 25.0995 5.75397 25.214 5.78411C25.4491 5.83836 25.6781 5.9348 25.8891 6.0433C26.3171 6.27235 26.6787 6.61593 26.9439 7.01376C27.0645 7.21871 27.1851 7.42968 27.2514 7.65873C27.2996 7.76723 27.3116 7.88778 27.3478 8.00231L27.3719 8.153C27.3779 8.20123 27.396 8.23739 27.396 8.33384L27.4081 8.57494V8.61111V8.64125V8.7618V9.24402V10.2145L27.4382 16.4532L27.4623 19.5695L27.4684 20.3411L27.4563 20.6364C27.4382 20.7329 27.4322 20.8293 27.4141 20.9258C27.3357 21.3115 27.179 21.6792 26.956 22.0108C26.733 22.3362 26.4376 22.6196 26.1001 22.8305C26.0157 22.8848 25.9313 22.939 25.8409 22.9752C25.7505 23.0234 25.66 23.0596 25.5696 23.0957C25.4792 23.1379 25.3828 23.162 25.2863 23.1862C25.1838 23.2163 25.0995 23.2284 25.0211 23.2464C24.9729 23.2525 24.9488 23.2645 24.8825 23.2705L24.6896 23.2826L24.5389 23.2886H24.346L23.5684 23.2947L22.0072 23.3127L15.7685 23.379C13.906 23.2947 12.0374 23.2223 10.1627 23.1681C8.32429 23.1199 6.47981 23.0716 4.63532 23.0294C3.97227 22.9511 3.35142 22.6256 2.91139 22.1313C2.69439 21.8842 2.51959 21.6009 2.39904 21.2935C2.33876 21.1428 2.29656 20.974 2.26643 20.8293C2.2604 20.763 2.24834 20.7088 2.23629 20.6364L2.2182 20.2808C2.22423 18.4122 2.23026 16.5436 2.23629 14.675C2.23629 12.7823 2.23026 10.8956 2.23026 9.00291V6.19399L2.22423 4.77748C2.22423 4.4339 2.28451 4.12045 2.39904 3.81304C2.62809 3.20424 3.09825 2.67983 3.68294 2.38447C3.82761 2.30611 3.9783 2.25186 4.13502 2.20364C4.21338 2.18555 4.29777 2.16144 4.36407 2.14939C4.43038 2.14336 4.48463 2.1313 4.55696 2.11322L4.9126 2.09514H5.20796H5.91923C7.80591 2.10117 9.69259 2.11322 11.5793 2.12528Z" fill="black"/>
</svg>
